<svg xmlns="http://www.w3.org/2000/svg" width="60" height="60" viewBox="0 0 60 60">
  <g id="Group_1" data-name="Group 1" transform="translate(-171 -324)">
    <g id="events" transform="translate(171 324)">
      <circle id="Ellipse_3" data-name="Ellipse 3" cx="30" cy="30" r="30" fill="#ffdf81"/>
      <path id="Path_7" data-name="Path 7" d="M19.924,17.424a1.875,1.875,0,0,1,1.326-.549H33.125V18.75a.625.625,0,0,0,1.25,0V16.875H38.75a1.875,1.875,0,0,1,1.875,1.875v3.188a3.125,3.125,0,0,0,0,6.124V31.25a1.875,1.875,0,0,1-1.875,1.875H34.375V31.25a.625.625,0,0,0-1.25,0v1.875H21.25a1.875,1.875,0,0,1-1.875-1.875V28.062a3.125,3.125,0,0,0,0-6.124V18.75A1.875,1.875,0,0,1,19.924,17.424ZM33.75,34.375H21.25a3.125,3.125,0,0,1-3.125-3.125V27.5a.625.625,0,0,1,.625-.625,1.875,1.875,0,0,0,0-3.75.625.625,0,0,1-.625-.625V18.75a3.125,3.125,0,0,1,3.125-3.125h17.5a3.125,3.125,0,0,1,3.125,3.125V22.5a.625.625,0,0,1-.625.625,1.875,1.875,0,0,0,0,3.75.625.625,0,0,1,.625.625v3.75a3.125,3.125,0,0,1-3.125,3.125Zm.625-10.625a.625.625,0,0,0-1.25,0v2.5a.625.625,0,0,0,1.25,0Z" fill="#ff6d00" fill-rule="evenodd"/>
    </g>
    <text id="Activities" transform="translate(185 371)" fill="#ff6d28" font-size="8" font-family="HelveticaNeue, Helvetica Neue"><tspan x="0" y="0">Activities</tspan></text>
  </g>
</svg>
