<svg id="call" xmlns="http://www.w3.org/2000/svg" width="40" height="40" viewBox="0 0 40 40">
  <circle id="Ellipse_6" data-name="Ellipse 6" cx="19.5" cy="19.5" r="19.5" transform="translate(0.5 0.5)" fill="none" stroke="#5846ee" stroke-width="1"/>
  <path id="Path_15" data-name="Path 15" d="M12.208,12.687a1.563,1.563,0,0,0-1.562,1.548A16.146,16.146,0,0,0,25.765,29.354a1.562,1.562,0,0,0,1.548-1.562V23.978L22.843,22.19l-1.334,2.224a.521.521,0,0,1-.677.2,11.979,11.979,0,0,1-5.445-5.445.521.521,0,0,1,.2-.677l2.224-1.334-1.788-4.469Zm0-1.042a2.6,2.6,0,0,0-2.6,2.6c0,.011,0,.021,0,.032A17.188,17.188,0,0,0,25.718,30.395h.032a2.6,2.6,0,0,0,2.6-2.6V23.625a.521.521,0,0,0-.327-.484l-5.208-2.083a.521.521,0,0,0-.64.216l-1.31,2.184a10.938,10.938,0,0,1-4.326-4.326l2.184-1.31a.521.521,0,0,0,.216-.64l-2.083-5.208a.521.521,0,0,0-.484-.327Z" fill="#5846ee" fill-rule="evenodd"/>
</svg>
