<svg xmlns="http://www.w3.org/2000/svg" width="40" height="40" viewBox="0 0 40 40">
  <g id="car" transform="translate(73.5 -106.5)">
    <circle id="Ellipse_7" data-name="Ellipse 7" cx="19.5" cy="19.5" r="19.5" transform="translate(-73 107)" fill="none" stroke="#5846ee" stroke-width="1"/>
    <path id="Path_16" data-name="Path 16" d="M20.183,9a.781.781,0,0,1,.7.436l3.033,6.145,6.781.983A.781.781,0,0,1,31.13,17.9l-4.914,4.783,1.159,6.754a.781.781,0,0,1-1.134.823L20.19,27.068l-6.065,3.189a.781.781,0,0,1-1.134-.824l1.159-6.754L9.236,17.9a.781.781,0,0,1,.433-1.333l6.781-.983,3.033-6.145A.781.781,0,0,1,20.183,9Zm0,2.547L17.669,16.64a.781.781,0,0,1-.589.428l-5.619.814,4.072,3.964a.781.781,0,0,1,.225.692l-.96,5.6,5.028-2.643a.781.781,0,0,1,.728,0l5.012,2.641-.96-5.6a.781.781,0,0,1,.225-.692L28.9,17.882l-5.619-.814a.781.781,0,0,1-.589-.428Z" transform="translate(-73.5 106.5)" fill="#5846ee" fill-rule="evenodd"/>
  </g>
</svg>
