<svg width="30" height="30" viewBox="0 0 30 30" fill="none" xmlns="http://www.w3.org/2000/svg">
<path fill-rule="evenodd" clip-rule="evenodd" d="M8.75 19.375C7.71447 19.375 6.875 20.2145 6.875 21.25C6.875 22.2855 7.71447 23.125 8.75 23.125C9.78553 23.125 10.625 22.2855 10.625 21.25C10.625 20.2145 9.78553 19.375 8.75 19.375ZM5.625 21.25C5.625 19.5241 7.02411 18.125 8.75 18.125C10.4759 18.125 11.875 19.5241 11.875 21.25C11.875 22.9759 10.4759 24.375 8.75 24.375C7.02411 24.375 5.625 22.9759 5.625 21.25Z" fill="#0000E5"/>
<path fill-rule="evenodd" clip-rule="evenodd" d="M21.25 19.375C20.2145 19.375 19.375 20.2145 19.375 21.25C19.375 22.2855 20.2145 23.125 21.25 23.125C22.2855 23.125 23.125 22.2855 23.125 21.25C23.125 20.2145 22.2855 19.375 21.25 19.375ZM18.125 21.25C18.125 19.5241 19.5241 18.125 21.25 18.125C22.9759 18.125 24.375 19.5241 24.375 21.25C24.375 22.9759 22.9759 24.375 21.25 24.375C19.5241 24.375 18.125 22.9759 18.125 21.25Z" fill="#0000E5"/>
<path fill-rule="evenodd" clip-rule="evenodd" d="M5.2392 6.71333C5.07741 6.71333 4.92224 6.77964 4.80783 6.89767C4.69343 7.0157 4.62915 7.17578 4.62915 7.3427V20.5595H5.79542V21.8182H4.01911C3.68219 21.8182 3.40906 21.5364 3.40906 21.1889V7.3427C3.40906 6.84194 3.60188 6.36169 3.94509 6.00761C4.28831 5.65352 4.75382 5.45459 5.2392 5.45459H16.2201C16.557 5.45459 16.8301 5.73637 16.8301 6.08396V6.71333H22.3205C22.5348 6.71333 22.7334 6.82932 22.8436 7.01889L26.5039 13.3126C26.5608 13.4104 26.5909 13.5223 26.5909 13.6364V21.1889C26.5909 21.5364 26.3177 21.8182 25.9808 21.8182H23.5227V20.5595H25.3708V14.2658H16.8301V20.5595H18.4091V21.8182H10.9091V20.5595H15.61V6.71333H5.2392ZM16.8301 7.97207V13.007H24.9034L21.9751 7.97207H16.8301Z" fill="#0000E5"/>
</svg>
