<svg id="deliveries" xmlns="http://www.w3.org/2000/svg" width="60" height="60" viewBox="0 0 60 60">
  <circle id="Ellipse_1" data-name="Ellipse 1" cx="30" cy="30" r="30" fill="#b796ff"/>
  <path id="Path_1" data-name="Path 1" d="M13.442,47a.2.2,0,0,1-.24-.24V41.64a.2.2,0,0,1,.24-.24h1.616a2.422,2.422,0,0,1,1.792.672,2.872,2.872,0,0,1,.68,2.128,2.884,2.884,0,0,1-.68,2.136A2.438,2.438,0,0,1,15.058,47ZM15,46.392a1.706,1.706,0,0,0,1.3-.528,3.026,3.026,0,0,0,0-3.32,1.693,1.693,0,0,0-1.3-.536h-1.1v4.384Zm5.387.656a1.921,1.921,0,0,1-1.48-.52,2.282,2.282,0,0,1-.48-1.592A2.424,2.424,0,0,1,18.9,43.32a1.73,1.73,0,0,1,1.392-.552,1.464,1.464,0,0,1,1.232.536,2.47,2.47,0,0,1,.416,1.552.386.386,0,0,1-.1.2q-.1.128-.168.128H19.148a1.548,1.548,0,0,0,.344.976,1.169,1.169,0,0,0,.888.312,1.832,1.832,0,0,0,.576-.08,3.715,3.715,0,0,0,.408-.168.849.849,0,0,1,.184-.088q.08,0,.176.16a.521.521,0,0,1,.1.24q0,.1-.2.224a2.082,2.082,0,0,1-.536.208A2.967,2.967,0,0,1,20.388,47.048Zm.84-2.44q0-1.264-.96-1.264-1.032,0-1.12,1.264Zm2.76,2.44a1.17,1.17,0,0,1-.72-.24,1.045,1.045,0,0,1-.312-.864V41.16q0-.176.32-.176h.032q.32,0,.32.176v4.72a.719.719,0,0,0,.112.464.418.418,0,0,0,.32.128,1.129,1.129,0,0,0,.224-.016.463.463,0,0,1,.12-.024q.072,0,.12.152a.768.768,0,0,1,.048.224Q24.573,47.048,23.989,47.048Zm1.735-.032q-.32,0-.32-.176V42.976q0-.176.32-.176h.032q.32,0,.32.176V46.84q0,.176-.32.176Zm.016-4.776q-.352,0-.352-.176v-.48q0-.176.352-.176t.352.176v.48Q26.092,42.24,25.74,42.24Zm2.853,4.776q-.28,0-.32-.128L26.985,43.04a.381.381,0,0,1-.024-.1q0-.136.344-.136h.04q.28,0,.32.128l.816,2.552q.136.44.264,1h.032q.008-.048.088-.392a7.291,7.291,0,0,1,.216-.736l.776-2.424q.04-.128.328-.128h.024q.3,0,.3.136a.384.384,0,0,1-.024.112l-1.288,3.84q-.04.128-.32.128Zm4.4.032a1.921,1.921,0,0,1-1.48-.52,2.282,2.282,0,0,1-.48-1.592,2.424,2.424,0,0,1,.472-1.616,1.73,1.73,0,0,1,1.392-.552,1.464,1.464,0,0,1,1.232.536,2.47,2.47,0,0,1,.416,1.552.386.386,0,0,1-.1.2q-.1.128-.168.128H31.758a1.548,1.548,0,0,0,.344.976,1.169,1.169,0,0,0,.888.312,1.832,1.832,0,0,0,.576-.08,3.715,3.715,0,0,0,.408-.168.849.849,0,0,1,.184-.088q.08,0,.176.16a.521.521,0,0,1,.1.24q0,.1-.2.224a2.082,2.082,0,0,1-.536.208A2.967,2.967,0,0,1,33,47.048Zm.84-2.44q0-1.264-.96-1.264-1.032,0-1.12,1.264Zm2.112,2.408q-.32,0-.32-.176V44.032a4.062,4.062,0,0,0-.048-.752q-.048-.232-.048-.256,0-.1.152-.136a.935.935,0,0,1,.28-.048.165.165,0,0,1,.16.12.91.91,0,0,1,.08.24q.032.128.04.168a1.17,1.17,0,0,1,.928-.6.6.6,0,0,1,.344.08.25.25,0,0,1,.12.232.957.957,0,0,1-.048.288q-.048.144-.112.144a.653.653,0,0,1-.16-.04.713.713,0,0,0-.28-.048.658.658,0,0,0-.4.144,1.376,1.376,0,0,0-.336.344V46.84q0,.176-.32.176Zm2.938,0q-.32,0-.32-.176V42.976q0-.176.32-.176h.032q.32,0,.32.176V46.84q0,.176-.32.176ZM38.9,42.24q-.352,0-.352-.176v-.48q0-.176.352-.176t.352.176v.48Q39.256,42.24,38.9,42.24Zm3.453,4.808a1.921,1.921,0,0,1-1.48-.52,2.282,2.282,0,0,1-.48-1.592,2.425,2.425,0,0,1,.472-1.616,1.73,1.73,0,0,1,1.392-.552,1.464,1.464,0,0,1,1.232.536,2.47,2.47,0,0,1,.416,1.552.386.386,0,0,1-.1.2q-.1.128-.168.128H41.117a1.549,1.549,0,0,0,.344.976,1.169,1.169,0,0,0,.888.312,1.832,1.832,0,0,0,.576-.08,3.7,3.7,0,0,0,.408-.168.851.851,0,0,1,.184-.088q.08,0,.176.16a.52.52,0,0,1,.1.24q0,.1-.2.224a2.081,2.081,0,0,1-.536.208A2.966,2.966,0,0,1,42.357,47.048Zm.84-2.44q0-1.264-.96-1.264-1.032,0-1.12,1.264Zm2.657,2.464a2.448,2.448,0,0,1-.64-.08,1.722,1.722,0,0,1-.464-.208q-.168-.12-.168-.216a.545.545,0,0,1,.1-.24q.1-.16.184-.16a.789.789,0,0,1,.152.088,1.648,1.648,0,0,0,.336.16,1.386,1.386,0,0,0,.456.072.954.954,0,0,0,.584-.152.584.584,0,0,0,0-.88,2.027,2.027,0,0,0-.6-.288,3.36,3.36,0,0,1-.576-.24,1.126,1.126,0,0,1-.384-.376,1.193,1.193,0,0,1-.152-.632,1.094,1.094,0,0,1,.168-.6,1.172,1.172,0,0,1,.472-.408,1.518,1.518,0,0,1,.688-.152,2.353,2.353,0,0,1,.728.1q.328.1.328.24a.6.6,0,0,1-.1.272q-.088.16-.16.16-.024-.008-.216-.1a1.048,1.048,0,0,0-.512-.1.855.855,0,0,0-.512.144.458.458,0,0,0-.2.392.487.487,0,0,0,.128.36,1.4,1.4,0,0,0,.5.248,2.683,2.683,0,0,1,.952.5,1.083,1.083,0,0,1,.328.848,1.129,1.129,0,0,1-.192.64,1.313,1.313,0,0,1-.512.448A1.569,1.569,0,0,1,45.854,47.072Z" fill="#0000e5"/>
  <path id="Path_2" data-name="Path 2" d="M23.75,29.375a1.875,1.875,0,1,0,1.875,1.875A1.875,1.875,0,0,0,23.75,29.375ZM20.625,31.25a3.125,3.125,0,1,1,3.125,3.125A3.125,3.125,0,0,1,20.625,31.25Z" fill="#0000e5" fill-rule="evenodd"/>
  <path id="Path_3" data-name="Path 3" d="M36.25,29.375a1.875,1.875,0,1,0,1.875,1.875A1.875,1.875,0,0,0,36.25,29.375ZM33.125,31.25a3.125,3.125,0,1,1,3.125,3.125A3.125,3.125,0,0,1,33.125,31.25Z" fill="#0000e5" fill-rule="evenodd"/>
  <path id="Path_4" data-name="Path 4" d="M20.239,16.713a.6.6,0,0,0-.431.184.639.639,0,0,0-.179.445V30.559H20.8v1.259H19.019a.62.62,0,0,1-.61-.629V17.343a1.919,1.919,0,0,1,.536-1.335,1.8,1.8,0,0,1,1.294-.553H31.22a.62.62,0,0,1,.61.629v.629h5.49a.606.606,0,0,1,.523.306l3.66,6.294a.644.644,0,0,1,.087.324v7.552a.62.62,0,0,1-.61.629H38.523V30.559h1.848V24.266H31.83v6.294h1.579v1.259h-7.5V30.559h4.7V16.713ZM31.83,17.972v5.035H39.9l-2.928-5.035Z" fill="#0000e5" fill-rule="evenodd"/>
</svg>
