<svg width="30" height="30" viewBox="0 0 30 30" fill="none" xmlns="http://www.w3.org/2000/svg">
<path fill-rule="evenodd" clip-rule="evenodd" d="M16.0669 6.06687C17.11 5.02376 18.5247 4.43774 19.9999 4.43774C21.4751 4.43774 22.8899 5.02376 23.933 6.06687C24.9761 7.10998 25.5621 8.52475 25.5621 9.99993C25.5621 11.4751 24.9761 12.8899 23.933 13.933L19.3749 18.491L11.5088 10.6249L16.0669 6.06687ZM10.183 10.183L15.183 5.18299C16.4605 3.90545 18.1932 3.18774 19.9999 3.18774C21.8066 3.18774 23.5393 3.90545 24.8169 5.18299C26.0944 6.46052 26.8121 8.19322 26.8121 9.99993C26.8121 11.8066 26.0944 13.5393 24.8169 14.8169L19.8194 19.8143C19.8186 19.8152 19.8177 19.816 19.8169 19.8169C19.816 19.8177 19.8152 19.8186 19.8143 19.8194L14.8169 24.8169C13.5393 26.0944 11.8066 26.8121 9.99993 26.8121C8.19322 26.8121 6.46052 26.0944 5.18299 24.8169C3.90545 23.5393 3.18774 21.8066 3.18774 19.9999C3.18774 18.1932 3.90545 16.4605 5.18299 15.183L10.183 10.183ZM18.491 19.3749L13.933 23.933C12.8899 24.9761 11.4751 25.5621 9.99993 25.5621C8.52475 25.5621 7.10998 24.9761 6.06687 23.933C5.02376 22.8899 4.43774 21.4751 4.43774 19.9999C4.43774 18.5247 5.02376 17.11 6.06687 16.0669L10.6249 11.5088L18.491 19.3749Z" fill="#FF01C0"/>
</svg>
