<svg id="doctor" xmlns="http://www.w3.org/2000/svg" width="60" height="60" viewBox="0 0 60 60">
  <circle id="Ellipse_2" data-name="Ellipse 2" cx="30" cy="30" r="30" fill="#ffb2e3"/>
  <path id="Path_5" data-name="Path 5" d="M31.067,16.067a5.562,5.562,0,0,1,7.866,7.866l-4.558,4.558-7.866-7.866Zm-5.884,4.116,5-5a6.812,6.812,0,0,1,9.634,9.634l-5,5,0,0,0,0-5,5a6.812,6.812,0,1,1-9.634-9.634Zm8.308,9.192-4.558,4.558a5.562,5.562,0,1,1-7.866-7.866l4.558-4.558Z" fill="#ff01c0" fill-rule="evenodd"/>
  <path id="Path_6" data-name="Path 6" d="M17.254,47a.2.2,0,0,1-.24-.24V41.64a.2.2,0,0,1,.24-.24H18.87a2.422,2.422,0,0,1,1.792.672,2.872,2.872,0,0,1,.68,2.128,2.884,2.884,0,0,1-.68,2.136A2.438,2.438,0,0,1,18.87,47Zm1.56-.608a1.706,1.706,0,0,0,1.3-.528,3.026,3.026,0,0,0,0-3.32,1.693,1.693,0,0,0-1.3-.536h-1.1v4.384Zm5.282.656a1.748,1.748,0,0,1-1.384-.544,2.337,2.337,0,0,1-.472-1.576,2.389,2.389,0,0,1,.48-1.6,1.713,1.713,0,0,1,1.376-.56,1.646,1.646,0,0,1,1.344.56,2.942,2.942,0,0,1,.008,3.184A1.676,1.676,0,0,1,24.1,47.048Zm-.024-.576a1.007,1.007,0,0,0,.864-.376,2.643,2.643,0,0,0,0-2.368,1,1,0,0,0-.864-.384.976.976,0,0,0-.856.384,2.041,2.041,0,0,0-.272,1.184,2.065,2.065,0,0,0,.272,1.184A.985.985,0,0,0,24.073,46.472Zm4.667.576a1.955,1.955,0,0,1-1.48-.512,2.332,2.332,0,0,1-.488-1.648,2.1,2.1,0,0,1,.544-1.632,1.95,1.95,0,0,1,1.352-.488,2.855,2.855,0,0,1,.832.112q.368.112.368.256a.6.6,0,0,1-.1.272q-.088.16-.16.16a.132.132,0,0,1-.04-.008.1.1,0,0,0-.048-.024,2.13,2.13,0,0,0-.872-.192q-1.16,0-1.16,1.528a2.082,2.082,0,0,0,.28,1.224,1.134,1.134,0,0,0,.96.376,1.993,1.993,0,0,0,.9-.208l.088-.032q.08,0,.176.16a.506.506,0,0,1,.1.248q0,.1-.176.192a1.887,1.887,0,0,1-.456.152A2.873,2.873,0,0,1,28.74,47.048Zm3.387,0a1.17,1.17,0,0,1-.72-.24,1.045,1.045,0,0,1-.312-.864V43.392h-.4a.138.138,0,0,1-.12-.056.324.324,0,0,1-.04-.184v-.1a.324.324,0,0,1,.04-.184.138.138,0,0,1,.12-.056h.4l.1-.84q.024-.176.256-.176h.08q.24,0,.24.176v.84h.672a.126.126,0,0,1,.12.056.325.325,0,0,1,.04.184v.1a.325.325,0,0,1-.04.184.126.126,0,0,1-.12.056h-.672V45.88a.719.719,0,0,0,.112.464.418.418,0,0,0,.32.128,1.129,1.129,0,0,0,.224-.016.463.463,0,0,1,.12-.024q.072,0,.12.152a.768.768,0,0,1,.048.224Q32.71,47.048,32.126,47.048Zm3.142,0a1.748,1.748,0,0,1-1.384-.544,2.337,2.337,0,0,1-.472-1.576,2.389,2.389,0,0,1,.48-1.6,1.713,1.713,0,0,1,1.376-.56,1.646,1.646,0,0,1,1.344.56,2.942,2.942,0,0,1,.008,3.184A1.676,1.676,0,0,1,35.269,47.048Zm-.024-.576a1.007,1.007,0,0,0,.864-.376,2.643,2.643,0,0,0,0-2.368,1,1,0,0,0-.864-.384.976.976,0,0,0-.856.384,2.041,2.041,0,0,0-.272,1.184,2.065,2.065,0,0,0,.272,1.184A.985.985,0,0,0,35.245,46.472Zm3.323.544q-.32,0-.32-.176V44.032a4.062,4.062,0,0,0-.048-.752q-.048-.232-.048-.256,0-.1.152-.136a.936.936,0,0,1,.28-.048.165.165,0,0,1,.16.12.906.906,0,0,1,.08.24q.032.128.04.168a1.171,1.171,0,0,1,.928-.6.6.6,0,0,1,.344.08.25.25,0,0,1,.12.232.957.957,0,0,1-.048.288q-.048.144-.112.144a.654.654,0,0,1-.16-.04.713.713,0,0,0-.28-.048.658.658,0,0,0-.4.144,1.376,1.376,0,0,0-.336.344V46.84q0,.176-.32.176Zm3.474.056a2.448,2.448,0,0,1-.64-.08,1.722,1.722,0,0,1-.464-.208q-.168-.12-.168-.216a.545.545,0,0,1,.1-.24q.1-.16.184-.16a.789.789,0,0,1,.152.088,1.648,1.648,0,0,0,.336.16,1.386,1.386,0,0,0,.456.072.954.954,0,0,0,.584-.152.584.584,0,0,0,0-.88,2.027,2.027,0,0,0-.6-.288,3.36,3.36,0,0,1-.576-.24,1.126,1.126,0,0,1-.384-.376,1.193,1.193,0,0,1-.152-.632,1.094,1.094,0,0,1,.168-.6,1.172,1.172,0,0,1,.472-.408,1.518,1.518,0,0,1,.688-.152,2.353,2.353,0,0,1,.728.1q.328.1.328.24a.6.6,0,0,1-.1.272q-.088.16-.16.16-.024-.008-.216-.1a1.048,1.048,0,0,0-.512-.1.855.855,0,0,0-.512.144.458.458,0,0,0-.2.392.487.487,0,0,0,.128.36,1.4,1.4,0,0,0,.5.248,2.683,2.683,0,0,1,.952.5,1.083,1.083,0,0,1,.328.848,1.129,1.129,0,0,1-.192.64,1.313,1.313,0,0,1-.512.448A1.569,1.569,0,0,1,42.041,47.072Z" fill="#ff01c0"/>
</svg>
