<svg width="30" height="30" viewBox="0 0 30 30" fill="none" xmlns="http://www.w3.org/2000/svg">
<path fill-rule="evenodd" clip-rule="evenodd" d="M4.92417 7.42417C5.27581 7.07254 5.75272 6.875 6.25 6.875H18.125V8.75C18.125 9.09518 18.4048 9.375 18.75 9.375C19.0952 9.375 19.375 9.09518 19.375 8.75V6.875H23.75C24.2473 6.875 24.7242 7.07254 25.0758 7.42417C25.4275 7.77581 25.625 8.25272 25.625 8.75V11.9381C25.0291 12.0598 24.4768 12.3538 24.0403 12.7903C23.4542 13.3763 23.125 14.1712 23.125 15C23.125 15.8288 23.4542 16.6237 24.0403 17.2097C24.4768 17.6462 25.0291 17.9402 25.625 18.0619V21.25C25.625 21.7473 25.4275 22.2242 25.0758 22.5758C24.7242 22.9275 24.2473 23.125 23.75 23.125H19.375V21.25C19.375 20.9048 19.0952 20.625 18.75 20.625C18.4048 20.625 18.125 20.9048 18.125 21.25V23.125H6.25C5.75272 23.125 5.27581 22.9275 4.92417 22.5758C4.57254 22.2242 4.375 21.7473 4.375 21.25V18.0619C4.9709 17.9402 5.52322 17.6462 5.95971 17.2097C6.54576 16.6237 6.875 15.8288 6.875 15C6.875 14.1712 6.54576 13.3763 5.95971 12.7903C5.52322 12.3538 4.9709 12.0598 4.375 11.9381V8.75C4.375 8.25272 4.57254 7.77581 4.92417 7.42417ZM18.75 24.375H6.25C5.4212 24.375 4.62634 24.0458 4.04029 23.4597C3.45424 22.8737 3.125 22.0788 3.125 21.25V17.5C3.125 17.1548 3.40482 16.875 3.75 16.875C4.24728 16.875 4.72419 16.6775 5.07583 16.3258C5.42746 15.9742 5.625 15.4973 5.625 15C5.625 14.5027 5.42746 14.0258 5.07583 13.6742C4.72419 13.3225 4.24728 13.125 3.75 13.125C3.40482 13.125 3.125 12.8452 3.125 12.5V8.75C3.125 7.9212 3.45424 7.12634 4.04029 6.54029C4.62634 5.95424 5.4212 5.625 6.25 5.625H18.75H23.75C24.5788 5.625 25.3737 5.95424 25.9597 6.54029C26.5458 7.12634 26.875 7.9212 26.875 8.75V12.5C26.875 12.8452 26.5952 13.125 26.25 13.125C25.7527 13.125 25.2758 13.3225 24.9242 13.6742C24.5725 14.0258 24.375 14.5027 24.375 15C24.375 15.4973 24.5725 15.9742 24.9242 16.3258C25.2758 16.6775 25.7527 16.875 26.25 16.875C26.5952 16.875 26.875 17.1548 26.875 17.5V21.25C26.875 22.0788 26.5458 22.8737 25.9597 23.4597C25.3737 24.0458 24.5788 24.375 23.75 24.375H18.75ZM19.375 13.75C19.375 13.4048 19.0952 13.125 18.75 13.125C18.4048 13.125 18.125 13.4048 18.125 13.75V16.25C18.125 16.5952 18.4048 16.875 18.75 16.875C19.0952 16.875 19.375 16.5952 19.375 16.25V13.75Z" fill="#FF6D00"/>
</svg>
