<svg xmlns="http://www.w3.org/2000/svg" width="60" height="60" viewBox="0 0 60 60">
  <g id="Group_3" data-name="Group 3" transform="translate(-311 -324)">
    <g id="shops" transform="translate(311 324)">
      <circle id="Ellipse_5" data-name="Ellipse 5" cx="30" cy="30" r="30" fill="#eabafe"/>
      <path id="Path_12" data-name="Path 12" d="M20.691,13.47a.625.625,0,0,1,.559-.345h17.5a.625.625,0,0,1,.559.345l2.5,5a.625.625,0,0,1,.066.279V20a4.375,4.375,0,0,1-2.5,3.953V35.625H41.25a.625.625,0,0,1,0,1.25H18.75a.625.625,0,0,1,0-1.25h1.875V23.953A4.375,4.375,0,0,1,18.125,20V18.75a.625.625,0,0,1,.066-.279Zm6.184,22.155h6.25V31.25a1.875,1.875,0,0,0-1.875-1.875h-2.5a1.875,1.875,0,0,0-1.875,1.875Zm7.5,0V31.25a3.125,3.125,0,0,0-3.125-3.125h-2.5a3.125,3.125,0,0,0-3.125,3.125v4.375h-3.75V24.33a4.375,4.375,0,0,0,3.719-1.236,3.055,3.055,0,0,0,.6-.965q.028-.066.055-.134.027.068.055.134a3.057,3.057,0,0,0,.6.965,4.375,4.375,0,0,0,6.844-.84,4.376,4.376,0,0,0,4.375,2.077V35.625Zm-7.46-16.25a10.3,10.3,0,0,0,.228,1.287,6.576,6.576,0,0,0,.313.98,1.875,1.875,0,0,0,.335.568A3.125,3.125,0,0,0,33.125,20v-.625Zm7.46,0V20a3.125,3.125,0,0,0,6.25,0v-.625Zm5.864-1.25H19.761l1.875-3.75H38.364Zm-20.864,1.25h6.21a10.3,10.3,0,0,1-.228,1.287,6.576,6.576,0,0,1-.313.98,1.875,1.875,0,0,1-.335.568A3.125,3.125,0,0,1,19.375,20Z" fill="#0000e5" fill-rule="evenodd"/>
    </g>
    <text id="Featured" transform="translate(341 371)" fill="#0026e6" font-size="8" font-family="HelveticaNeue, Helvetica Neue"><tspan x="-15.856" y="0">Featured</tspan></text>
  </g>
</svg>
