<svg xmlns="http://www.w3.org/2000/svg" width="32" height="32" fill="none" viewBox="0 0 32 32">
    <path fill="#3C3C3C" fill-rule="evenodd" d="M18.667 6.333C17.747 6.333 17 7.08 17 8v.002c.001.92.747 1.665 1.667 1.665s1.665-.745 1.666-1.665V8v-.002c0-.92-.747-1.665-1.666-1.665zM22.195 7c-.435-1.539-1.85-2.667-3.528-2.667-1.679 0-3.094 1.128-3.529 2.667H5.333c-.552 0-1 .448-1 1s.448 1 1 1h9.805c.435 1.54 1.85 2.667 3.529 2.667 1.678 0 3.093-1.128 3.528-2.667h4.472c.552 0 1-.448 1-1s-.448-1-1-1h-4.472zM10.667 14.334C9.747 14.334 9 15.08 9 16v.029c.02.078.03.16.03.244v.04c.146.771.823 1.354 1.637 1.354.92 0 1.665-.745 1.666-1.665V16v-.002c0-.92-.747-1.664-1.666-1.664zm3.528.666c-.435-1.539-1.85-2.666-3.528-2.666-1.776 0-3.257 1.262-3.595 2.939H5.364c-.553 0-1 .448-1 1s.447 1 1 1h1.863c.517 1.398 1.862 2.394 3.44 2.394 1.678 0 3.093-1.128 3.528-2.667h12.472c.552 0 1-.448 1-1s-.448-1-1-1H14.195zM22.667 22.334c-.92 0-1.667.746-1.667 1.666v.002c.001.92.747 1.665 1.667 1.665s1.665-.745 1.666-1.665V24 24c0-.92-.746-1.665-1.666-1.665zm3.528.666c-.435-1.539-1.85-2.666-3.528-2.666-1.679 0-3.094 1.127-3.529 2.666H5.333c-.552 0-1 .448-1 1s.448 1 1 1h13.805c.435 1.54 1.85 2.667 3.529 2.667 1.678 0 3.093-1.128 3.528-2.667h.472c.552 0 1-.448 1-1s-.448-1-1-1h-.472z" clip-rule="evenodd"/>
</svg>
