<svg xmlns="http://www.w3.org/2000/svg" xmlns:xlink="http://www.w3.org/1999/xlink" width="62.876" height="82.816" viewBox="0 0 62.876 82.816">
  <defs>
    <clipPath id="clip-path">
      <path id="path16" d="M0-1557.573H41.756V-1600H0Z" transform="translate(0 1599.996)"/>
    </clipPath>
  </defs>
  <g id="Group_7" data-name="Group 7" transform="translate(-707 -638)">
    <g id="marker" transform="translate(707 638)">
      <path id="Path_7" data-name="Path 7" d="M31.438,82.816a2.666,2.666,0,0,1-1.743-.652C28.483,81.1,0,55.79,0,31.28a31.438,31.438,0,0,1,62.876,0c0,24.51-28.483,49.817-29.695,50.88A2.652,2.652,0,0,1,31.438,82.816Z" fill="#be00ff"/>
      <path id="Path_8" data-name="Path 8" d="M27.84,52.763A25.418,25.418,0,0,1,2.3,27.53a25.545,25.545,0,0,1,51.087,0A25.418,25.418,0,0,1,27.84,52.763Z" transform="translate(3.598 3.526)" fill="#fff"/>
    </g>
    <g id="g10" transform="translate(717 2246.996)">
      <g id="g12" transform="translate(0 -1599.996)">
        <g id="g14" clip-path="url(#clip-path)">
          <g id="g20" transform="translate(5.602 8.073)">
            <path id="path22" d="M-1125.03-622.673c1.413-2.513,1.744-7.437-2.588-7.992-3.862-.495-4.711,3.7-5.036,3.853s-1.715-1.767-5.062-2.107a14.95,14.95,0,0,0-3.486.335.424.424,0,0,1-.385-.086.424.424,0,0,1-.147-.366c.242-2.734.163-6.536-1.735-8.519-3.1-3.242-5.947-1.737-6.1-1.674a3.962,3.962,0,0,0-1.206.721h0a6.867,6.867,0,0,1-3.134,1.416c.394.509.775,1,1.095,1.41q-.139.168-.273.346c-2,2.662-2.888,5.14-1.17,6.47,1.008.78,2.519.029,4.1-.7a22.691,22.691,0,0,0-.045,5.227c.7,6.89,3.971,12.5,6.141,12.5,1.73,0-1.927-8.272,3.287-8.272,4.908,0,1.277,8.272,3.529,8.272,1.554,0,2.732-2.4,3.13-4.081.254-1.071.922-7.017,2.214-6.931,1.067.071.592,3.3.391,4.1a5.53,5.53,0,0,0,1.186,5.44c1.337,1.358,4.767,1.768,6.263-.177a2.855,2.855,0,0,0-.07-3.618c-.879-.739-2.261-.377-1.809,1.073.335-.655.863-.283.772.248a1.214,1.214,0,0,1-.686.822,1.214,1.214,0,0,1-1.07-.04c-2.176-.985,1.319-6.636,1.9-7.673" transform="translate(1155.177 639.632)" fill="#bf00ff"/>
          </g>
          <g id="g24" transform="translate(5.678 7.836)">
            <path id="path26" d="M-13.415-62.256a7.349,7.349,0,0,0,2.361-1.234c-.288-.158-.576-.313-.859-.462a6.91,6.91,0,0,1-1.861,1.212q.175.239.359.484" transform="translate(13.775 63.952)" fill="#bf00ff"/>
          </g>
          <g id="g28" transform="translate(5.075 7.268)">
            <path id="path30" d="M-50.21,0a6.32,6.32,0,0,1-1.345.929c.117.173.245.355.379.542A6.877,6.877,0,0,0-49.443.386C-49.708.249-49.965.119-50.21,0" transform="translate(51.556)" fill="#bf00ff"/>
          </g>
          <g id="g32" transform="translate(6.275 8.489)">
            <path id="path34" d="M-12.478-65.836A6.976,6.976,0,0,0-9.433-67.12c-.294-.167-.6-.339-.908-.51a7.268,7.268,0,0,1-2.471,1.356l.334.437" transform="translate(12.812 67.629)" fill="#bf00ff"/>
          </g>
          <g id="g36" transform="translate(4.317 6.558)">
            <path id="path38" d="M-1.77-1.477c-.153.132.078.624.5,1.285A6.222,6.222,0,0,0-.079-.981c-.874-.406-1.532-.634-1.691-.5" transform="translate(1.817 1.518)" fill="#bf00ff"/>
          </g>
          <g id="g40" transform="translate(19.402 13.125)">
            <path id="path42" d="M-7.443-205.885a.186.186,0,0,1-.184-.175,10.058,10.058,0,0,1,.225-2.657A3.777,3.777,0,0,1-6-211.26a1.2,1.2,0,0,1,1.288-.073,1.133,1.133,0,0,1,.4,1.115.146.146,0,0,1-.01.053,1.318,1.318,0,0,1,.658-.242.7.7,0,0,1,.585.284c.29.375.061.9-.2,1.219a1.291,1.291,0,0,1,.211.037,1.179,1.179,0,0,1,.887,1.1,1.317,1.317,0,0,1-.684,1.073,3.436,3.436,0,0,1-1.129.362.185.185,0,0,1-.139-.03.185.185,0,0,1-.077-.119.187.187,0,0,1,.147-.219,3.112,3.112,0,0,0,1.011-.317.956.956,0,0,0,.5-.754.809.809,0,0,0-.61-.737,1.085,1.085,0,0,0-.645.044c-.135.085-.275.16-.412.233a.183.183,0,0,1-.241-.064.189.189,0,0,1,.043-.25,1.8,1.8,0,0,1,.443-.255,2.031,2.031,0,0,0,.314-.243c.222-.214.454-.641.291-.851a.328.328,0,0,0-.285-.141c-.4.011-.944.547-1.132.818a.183.183,0,0,1-.119.076.183.183,0,0,1-.138-.031.189.189,0,0,1-.044-.261,2.227,2.227,0,0,0,.413-.853.754.754,0,0,0-.247-.74.857.857,0,0,0-.889.082,3.451,3.451,0,0,0-1.234,2.3,9.69,9.69,0,0,0-.219,2.557.186.186,0,0,1-.044.136.186.186,0,0,1-.128.064h-.012" transform="translate(7.642 211.492)" fill="#bf00ff"/>
          </g>
        </g>
      </g>
    </g>
  </g>
</svg>
