<svg width="30" height="30" viewBox="0 0 30 30" fill="none" xmlns="http://www.w3.org/2000/svg">
<path fill-rule="evenodd" clip-rule="evenodd" d="M8.74997 4.375C8.25269 4.375 7.77578 4.57254 7.42415 4.92417C7.07252 5.27581 6.87497 5.75272 6.87497 6.25V25.625H10.625V21.25C10.625 20.4212 10.9542 19.6263 11.5403 19.0403C12.1263 18.4542 12.9212 18.125 13.75 18.125H16.25C17.0788 18.125 17.8737 18.4542 18.4597 19.0403C19.0458 19.6263 19.375 20.4212 19.375 21.25V25.625H23.125V6.25C23.125 5.75272 22.9274 5.27581 22.5758 4.92417C22.2242 4.57254 21.7473 4.375 21.25 4.375H8.74997ZM18.7516 26.875H23.7478L23.75 26.875L23.7522 26.875H26.25C26.5952 26.875 26.875 26.5952 26.875 26.25C26.875 25.9048 26.5952 25.625 26.25 25.625H24.375V6.25C24.375 5.4212 24.0457 4.62634 23.4597 4.04029C22.8736 3.45424 22.0788 3.125 21.25 3.125H8.74997C7.92117 3.125 7.12631 3.45424 6.54026 4.04029C5.95421 4.62634 5.62497 5.4212 5.62497 6.25V25.625H3.75C3.40482 25.625 3.125 25.9048 3.125 26.25C3.125 26.5952 3.40482 26.875 3.75 26.875H6.24777L6.24997 26.875L6.25218 26.875H11.2484L11.25 26.875L11.2516 26.875H18.7484L18.75 26.875L18.7516 26.875ZM18.125 25.625V21.25C18.125 20.7527 17.9275 20.2758 17.5758 19.9242C17.2242 19.5725 16.7473 19.375 16.25 19.375H13.75C13.2527 19.375 12.7758 19.5725 12.4242 19.9242C12.0725 20.2758 11.875 20.7527 11.875 21.25V25.625H18.125ZM11.8749 11.25C11.8749 10.9048 12.1548 10.625 12.4999 10.625H14.375V8.74994C14.375 8.40477 14.6548 8.12494 15 8.12494C15.3452 8.12494 15.625 8.40477 15.625 8.74994V10.625H17.4999C17.8451 10.625 18.1249 10.9048 18.1249 11.25C18.1249 11.5952 17.8451 11.875 17.4999 11.875H15.625V13.7499C15.625 14.0951 15.3452 14.3749 15 14.3749C14.6548 14.3749 14.375 14.0951 14.375 13.7499V11.875H12.4999C12.1548 11.875 11.8749 11.5952 11.8749 11.25Z" fill="#009900"/>
</svg>
