<svg xmlns="http://www.w3.org/2000/svg" width="1749.018" height="548.952" viewBox="0 0 1749.018 548.952">
  <g id="medsie_logo" transform="translate(-0.282 548.952)">
    <path id="Path_19" data-name="Path 19" d="M.4-547.7c-.3.9,0,3.3.6,5.4C2.5-537.5,9.8-525,11.1-525c2.4,0,20.9-12.3,20.9-14,0-1.4-20.6-9-26-9.7C2-549.2.9-549,.4-547.7Z" fill="#bf16f8"/>
    <path id="Path_20" data-name="Path 20" d="M35.6-531.9a146.713,146.713,0,0,1-12.5,8.6c-4.2,2.6-7.8,4.8-7.9,4.9-.7.5,5.9,9.4,6.9,9.4,3.3,0,26.5-13.7,30.3-17.9,1.8-1.9,1.7-2-5.1-5.4l-6.8-3.5Z" fill="#bf16f8"/>
    <path id="Path_21" data-name="Path 21" d="M56-520.4c-5.6,4.6-21.4,14.4-26.9,16.7L26-502.4l3.2,4.2c1.8,2.3,3.8,4.2,4.5,4.2,5.8,0,43.3-19.2,43.3-22.2,0-.6-10.6-6.6-15-8.5C61.7-524.8,59-522.9,56-520.4Z" fill="#bf16f8"/>
    <path id="Path_22" data-name="Path 22" d="M149.8-518.5c-14.1,2.9-31.3,11.2-43,20.7-12,9.8-27.4,17.2-46.8,22.4-5.2,1.5-9.6,2.8-9.8,2.9-.2.2,4.2,6,9.7,13L70-446.7l-2,2.6c-13.9,18-24.4,34.4-31.6,49.6-6.1,12.9-8.1,18.3-10,28.3-3.5,18.3.1,31.8,11.5,43.2,14.2,14.3,31.3,13.4,69.2-3.4,7-3.1,12.9-5.6,13.1-5.6s.1,2.8-.3,6.2c-3.6,28.9-3.1,69.2,1.1,102.8,11.1,87,45.3,171.1,84.6,207.9C217-4.5,225.6,0,234.6,0c5.6,0,6.5-.3,7.9-2.4,2.8-4.2,3.6-14.7,2.5-30-.5-7.8-1.5-22.3-2.1-32.3-3.4-53.3,8.2-79.8,38.6-87.8,8-2.1,26.1-2.1,33.9,0,18.1,4.8,28.9,17.8,34.3,41,1.6,7.1,1.8,13,1.8,51.5.1,42.8.3,46.5,3.3,52.5C357.9-1,359.7,0,367.5,0c6,0,8.2-.5,13.3-3.1,15.8-7.9,32-31.9,41.5-61.4,2.2-6.9,5.1-20.2,7.7-35.5,4.8-28.4,8.8-48,13-63.6,9-33.9,20.4-48.7,30.8-39.9,4.1,3.4,6.1,8.9,7.2,20,1.6,15.1-.9,39-6.5,63-.9,3.9-1.9,13.7-2.2,22-.9,24.2,3.2,40.2,14.8,57.5,11.5,17.2,25.6,27.1,46.7,32.7C542.3-6,545.5-5.7,559-5.7c18.3,0,26.2-1.7,39.2-8.4,21.3-11.1,33.8-34.8,30-56.8-3.6-21.4-14.1-32.6-30.3-32.6-5.3,0-7.4.5-9.6,2.1-5,3.7-7.3,8.1-7.3,14,0,7.7.6,8.7,3.5,5.8,5.3-5.3,12.5-1.3,12.5,6.8,0,5.6-2.1,9.9-6.9,14-6.6,5.6-14.6,7-23.9,4.3a22.85,22.85,0,0,1-14.4-12.3c-3.3-6.8-3.1-21.8.6-35.7,5.4-20.3,18.6-49.3,36.1-79.5,16.2-27.8,21.3-39.8,25.7-59.8,3.2-14.4,3.2-40.1,0-52.7-3.6-14.3-9.2-24.6-18.7-34.1-14.7-14.8-32.5-21.5-57-21.5-13.5,0-23.3,2.3-34.5,8.2-16.1,8.3-28.7,23.1-40.6,47.5-4.1,8.4-8.1,15.7-8.8,16.4-1.8,1.4-2.3,1.2-18.2-9.6-20.3-13.8-38-21.5-60.6-26.6-9-2-12.8-2.3-30.3-2.2-19.9.1-37.9,1.8-51.3,4.9-5.5,1.3-6.7,1.3-9.1,0-4.1-2.1-4.9-5.5-4-17,1.1-14.3,1.1-48.5-.1-60.6-4.6-45.6-15.7-72.9-38.8-95.1-15.9-15.2-33.9-26-51.7-30.8C180.2-519.8,159.6-520.6,149.8-518.5Z" fill="#bf16f8"/>
    <path id="Path_23" data-name="Path 23" d="M80.4-509.4c-6.7,5.5-19.6,12.8-31.4,17.5-6,2.4-11,4.6-11,4.9a25.17,25.17,0,0,0,3,4.2l3,3.6L54.8-482c12.1-3.2,19.1-5.6,27.5-9.3C88.3-494,101-502,101-503c0-.4-1.9-1.7-4.2-3-2.4-1.3-6.1-3.3-8.3-4.6l-4-2.2Z" fill="#bf16f8"/>
    <path id="Path_24" data-name="Path 24" d="M327-424.6c-22.8,6.1-38.1,40.9-38.4,87.1l-.1,16h6l.6-16.5c1.2-33.2,8.9-59.6,20.7-71.6,6.2-6.3,11.3-8.8,17.5-8.9,4.2,0,5.2.4,7.7,3.2,5.4,6,4.9,13-1.5,23.8-3.9,6.4-4.1,8.8-.9,9.3,1.5.2,4.1-1.6,8.5-6,8.9-8.8,15.6-11.6,21-8.8,5.1,2.8.1,15.1-8.1,20-11.8,7.2-13.7,9.3-10.4,12.1,1.3,1,2.5.7,7.7-1.9,12.1-6.2,23.9-2.9,27.2,7.6,1.8,6.1-3,14.4-10.7,18.3a67.507,67.507,0,0,1-11.4,3.9c-4.1,1.1-7.9,2.2-8.4,2.5-1.5.9-1.2,3.1.6,4.5,3.4,2.9,23.2-3.6,29.7-9.8,6-5.6,8.6-14.1,6.7-21.3-1.7-6.1-9-13.4-15.2-14.9l-4.5-1.2,2.8-5.1c2-3.7,2.9-6.6,2.9-10.1,0-4.3-.4-5.3-3.9-8.7-3.4-3.5-4.4-3.9-8.7-3.9a25.154,25.154,0,0,0-9.1,2l-4.3,1.9v-5.5a26.372,26.372,0,0,0-1.4-8.7c-1.7-4.2-6.6-8.3-11.4-9.7C333.7-426.2,332.7-426.2,327-424.6Z" fill="#bf16f8"/>
    <path id="Path_25" data-name="Path 25" d="M1150-418.4c-17.9.6-32.8,1.3-33.1,1.3-.3.1-.9,6.7-1.3,14.8-1.6,34.3-6.5,108-8.2,122-.5,4.4-1,5.3-2.6,5.3-1.1,0-3.3-1.1-5-2.5a81.17,81.17,0,0,0-9.1-5.9c-28.4-15.7-76.9-14-111.4,3.8-39.3,20.4-71,67.6-81.2,120.9-4.8,25.4-5.4,63.1-1.2,82.5,8.5,39.8,28.5,65,58.8,74.2,6.7,2,8.8,2.1,32,1.8,24-.4,25.1-.5,32.8-3.2a120.637,120.637,0,0,0,30.6-15.7c9.4-6.9,22.3-20.9,28.9-31.2,3.1-4.9,6.2-8.6,7.1-8.7,1.8,0,2.9,7.6,2.9,21.5.1,7.8,1.4,24.4,2.5,31.5l.6,3.5,24.7-1.2c39.4-1.9,43.4-2.3,42.8-3.9-.3-.7-1-17.7-1.7-37.8-3-90.4,6.2-204.9,25.1-314.1,6.3-36.1,9-53.5,9-57.4,0-3.1,0-3.1-5.2-3C1184.9-419.8,1167.9-419.1,1150-418.4Zm-72,180.5c9.2,2.1,25,9.2,25,11.2,0,3.6-6.3,59.5-7.5,66.8-8.1,47.4-37.6,94.1-66.1,104.5-7.4,2.7-23.1,2.4-30.7-.5-21-8.2-32.3-36.9-30.3-77.6,1.3-28.9,9.1-54.6,22.5-74.3C1009.3-235,1042-246.3,1078-237.9Z" fill="#bf16f8"/>
    <path id="Path_26" data-name="Path 26" d="M1462-414.9c-15.2,2.6-30.9,14.7-38.1,29.4-11.4,23.2-5.1,49.9,13.9,59.2,4.6,2.2,7.3,2.8,15,3.1,17.3.8,29.1-3.7,40.7-15.3,11.5-11.5,16.5-23.6,16.5-40,0-18.2-6.5-29.5-20-34.6C1483.9-415.4,1469.9-416.3,1462-414.9Z" fill="#bf16f8"/>
    <path id="Path_27" data-name="Path 27" d="M781-296c-34.2,4.3-62.6,17-88.7,39.9-29,25.5-45.8,57.4-51.9,99.1-2.4,16.4-1.5,53.1,1.6,67.5,8.5,39.7,28.2,68,56.3,81a133.283,133.283,0,0,0,16.2,6C723.1,0,723.6,0,759.4,0c39.9,0,44.1-.5,65.1-7.2,9.5-3,34.5-14.8,39.3-18.6,2.1-1.6,2.7-4.5,6.8-30.2,2.4-15.5,4.3-28.4,4.1-28.6-.1-.2-6.6,2.8-14.2,6.6-31.7,15.5-57.5,22.2-86,22.2-41.4,0-59.2-17.5-63.5-62.1-.7-6.7-.9-12.8-.6-13.6.4-1.2,2.7-1.5,10.8-1.5,31.2,0,75.1-5.8,101.4-13.4,24.9-7.2,41.8-16.1,55.1-29.1,7.7-7.6,9.8-10.4,13.2-17.5,5.7-11.8,7.4-20.8,6.8-34.5-1-18.9-6.3-31.5-18.6-43.5-12.3-12.1-28.5-19.8-49.6-23.5C818.6-296.4,791.4-297.2,781-296Zm24.5,51.5c15.2,2.7,24.1,9.7,26.6,21a20.177,20.177,0,0,1,0,10.9c-3.8,17.2-23.9,27.7-63.9,33.6-14.2,2.1-53.8,4.8-54.8,3.8-1-1.1,3.6-16.1,7.7-24.8,8.5-18,21.2-30.5,40.2-39.6C774.1-245.7,789.4-247.4,805.5-244.5Z" fill="#bf16f8"/>
    <path id="Path_28" data-name="Path 28" d="M1633.4-296c-38.4,4.4-71.9,21.1-99.5,49.7-24.9,25.8-38.8,57.3-42.9,97.2-5.5,54.7,10.7,105.6,41.3,129.7,8.3,6.6,23.9,14.4,34.7,17.3,6.9,1.9,10.2,2.1,43.9,2.1,35.5,0,36.6-.1,47.9-2.6a164.261,164.261,0,0,0,40.8-14.5c19.4-9.6,17.5-6.4,22.7-39.7,2.4-15.5,4.2-28.2,4-28.2s-5.8,2.7-12.5,6.1c-35.1,17.6-69,25.5-97.4,22.8-17.6-1.6-29-6.4-37.5-15.7-10.2-11.2-16.8-32.1-16.9-53.8v-7.1l18.8-.6c75.8-2.6,131.1-19.7,153.8-47.4,10.1-12.5,14.7-25.9,14.7-43.3,0-27.6-12.6-47.9-37.6-60.5-15.9-8-31.7-11.4-55.7-12C1647.5-296.7,1637.3-296.5,1633.4-296Zm28.1,52.3c11,3,19.3,9.8,21.4,17.4,8.1,28.9-22.4,45.4-92.9,50.3-22.1,1.5-25,1.4-25-.9,0-3.2,5-18.1,8.2-24.6a81.57,81.57,0,0,1,54.3-43.1C1634.7-246.3,1653.9-245.7,1661.5-243.7Z" fill="#bf16f8"/>
    <path id="Path_29" data-name="Path 29" d="M1294.5-293.9c-35.6,2.1-70,16.8-86,36.7-5.6,6.9-12.7,21.3-15,30.2-2.6,10.3-3.1,30.1-1.1,39.4a68.038,68.038,0,0,0,17.3,31.7c11.7,12.2,24.6,20.4,53.7,34,20.4,9.5,28.7,14.3,35.9,20.9,15.6,14.3,13.8,31.8-4.3,41a91.267,91.267,0,0,1-12.7,4.3c-8,2-11.1,2.2-34.8,2.2-24.4-.1-26.8-.3-38.7-2.8-6.9-1.5-16.3-3.8-20.8-5.3-4.5-1.4-8.3-2.4-8.4-2.2-.4.6-15.5,57.3-15.3,57.5.2.1,5.9,1.4,12.7,2.9,12.4,2.7,12.9,2.8,58.2,3.1,49.5.5,52.7.2,71.9-5.2,41.7-11.8,63.6-36.2,67.9-75.8,3.7-33.2-10.4-59-43.5-79.5-10.3-6.3-14.8-8.6-32.5-16.2-30.8-13.3-42.5-23.4-42.3-36.9.3-11,7.4-19.2,20.6-23.3,6.6-2.1,9.1-2.3,29.2-2.3,23.7,0,34.8,1.3,52.6,6.1,5.1,1.3,9.6,2.1,10,1.7.8-.9,16-56.5,15.6-57-.2-.1-4.4-.9-9.5-1.7C1356.1-293.5,1316.8-295.2,1294.5-293.9Z" fill="#bf16f8"/>
    <path id="Path_30" data-name="Path 30" d="M1447-285.5c-21.2,2.4-38.5,4.3-38.5,4.4s.2,11.5.4,25.5c.3,26.3-.9,57.3-3.4,87.6-1.6,18.3-12.3,106-17.5,142.9-1.6,11.8-2.8,21.7-2.5,21.9.5.5,64-1.6,70.1-2.4l4.1-.5.7-13.7c2.8-57.2,9.2-123.7,18.7-195.7,3.5-27,6.6-52.7,8.3-68.8.5-4.2.3-5.7-.6-5.6C1486.1-289.8,1468.2-287.9,1447-285.5Z" fill="#bf16f8"/>
  </g>
</svg>
