<svg width="30" height="30" viewBox="0 0 30 30" fill="none" xmlns="http://www.w3.org/2000/svg">
<path fill-rule="evenodd" clip-rule="evenodd" d="M5.69098 3.47049C5.79685 3.25875 6.01327 3.125 6.25 3.125H23.75C23.9867 3.125 24.2031 3.25875 24.309 3.47049L26.809 8.47049C26.8524 8.55728 26.875 8.65297 26.875 8.75V10C26.875 11.1603 26.4141 12.2731 25.5936 13.0936C25.2361 13.4511 24.8231 13.7403 24.3749 13.9529V25.625H26.25C26.5952 25.625 26.875 25.9048 26.875 26.25C26.875 26.5952 26.5952 26.875 26.25 26.875H18.7527C18.7518 26.875 18.7509 26.875 18.75 26.875C18.7491 26.875 18.7482 26.875 18.7473 26.875H11.2527C11.2518 26.875 11.2509 26.875 11.25 26.875C11.2491 26.875 11.2482 26.875 11.2473 26.875H3.75C3.40482 26.875 3.125 26.5952 3.125 26.25C3.125 25.9048 3.40482 25.625 3.75 25.625H5.62496V13.9528C5.17679 13.7402 4.76386 13.451 4.40641 13.0936C3.58594 12.2731 3.125 11.1603 3.125 10V8.75C3.125 8.65297 3.14759 8.55728 3.19098 8.47049L5.69098 3.47049ZM11.875 25.625H18.125V21.25C18.125 20.7527 17.9275 20.2758 17.5758 19.9242C17.2242 19.5725 16.7473 19.375 16.25 19.375H13.75C13.2527 19.375 12.7758 19.5725 12.4242 19.9242C12.0725 20.2758 11.875 20.7527 11.875 21.25V25.625ZM19.375 25.625V21.25C19.375 20.4212 19.0458 19.6263 18.4597 19.0403C17.8737 18.4542 17.0788 18.125 16.25 18.125H13.75C12.9212 18.125 12.1263 18.4542 11.5403 19.0403C10.9542 19.6263 10.625 20.4212 10.625 21.25V25.625H6.87496V14.3301C7.08077 14.3598 7.2896 14.375 7.5 14.375C8.66032 14.375 9.77312 13.9141 10.5936 13.0936C10.8526 12.8346 11.047 12.4796 11.1955 12.1289C11.2141 12.085 11.2322 12.0404 11.25 11.9953C11.2678 12.0404 11.2859 12.085 11.3045 12.1289C11.453 12.4796 11.6475 12.8346 11.9064 13.0936C12.7269 13.9141 13.8397 14.375 15 14.375C16.1603 14.375 17.2731 13.9141 18.0936 13.0936C18.348 12.8392 18.5678 12.5568 18.75 12.2535C18.9322 12.5568 19.152 12.8392 19.4064 13.0936C20.2269 13.9141 21.3397 14.375 22.5 14.375C22.7104 14.375 22.9191 14.3598 23.1249 14.3302V25.625H19.375ZM11.915 9.375C11.9574 9.76057 12.0334 10.2153 12.1426 10.6616C12.2306 11.0217 12.3365 11.3602 12.4556 11.6415C12.5789 11.9328 12.6976 12.117 12.7903 12.2097C13.3763 12.7958 14.1712 13.125 15 13.125C15.8288 13.125 16.6237 12.7958 17.2097 12.2097C17.7958 11.6237 18.125 10.8288 18.125 10V9.375H11.915ZM19.375 9.375V10C19.375 10.8288 19.7042 11.6237 20.2903 12.2097C20.8763 12.7958 21.6712 13.125 22.5 13.125C23.3288 13.125 24.1237 12.7958 24.7097 12.2097C25.2958 11.6237 25.625 10.8288 25.625 10V9.375H19.375ZM25.2387 8.125H4.76127L6.63627 4.375H23.3637L25.2387 8.125ZM4.375 9.375H10.585C10.5426 9.76057 10.4666 10.2153 10.3574 10.6616C10.2694 11.0217 10.1635 11.3602 10.0444 11.6415C9.92107 11.9328 9.80238 12.117 9.70971 12.2097C9.12366 12.7958 8.3288 13.125 7.5 13.125C6.6712 13.125 5.87634 12.7958 5.29029 12.2097C4.70424 11.6237 4.375 10.8288 4.375 10V9.375Z" fill="#0000E5"/>
</svg>
