<svg width="15" height="14" viewBox="0 0 15 14" fill="none" xmlns="http://www.w3.org/2000/svg">
<path fill-rule="evenodd" clip-rule="evenodd" d="M7.5 0C7.69944 0 7.88157 0.110724 7.96984 0.285615L10.0037 4.31575L14.5512 4.96026C14.7487 4.98824 14.9127 5.12349 14.9744 5.30908C15.036 5.49467 14.9845 5.69838 14.8415 5.83448L11.5461 8.97137L12.3232 13.401C12.3569 13.5933 12.276 13.7877 12.1145 13.9023C11.9531 14.0169 11.739 14.0319 11.5625 13.9409L7.50461 11.8498L3.43706 13.9411C3.26053 14.0319 3.04662 14.0168 2.88527 13.9021C2.72393 13.7875 2.64312 13.5932 2.67684 13.401L3.45386 8.97137L0.1585 5.83448C0.0155195 5.69838 -0.0359962 5.49467 0.0256324 5.30908C0.0872609 5.12349 0.251334 4.98824 0.448805 4.96026L4.9963 4.31575L7.03017 0.285615C7.11843 0.110724 7.30057 0 7.5 0ZM7.5 1.67011L5.81401 5.01092C5.73766 5.16221 5.59005 5.26705 5.41932 5.29124L1.65116 5.8253L4.38232 8.42512C4.50598 8.54284 4.56244 8.71256 4.53326 8.8789L3.88913 12.551L7.26107 10.8173C7.41387 10.7387 7.59643 10.7388 7.74915 10.8175L11.1107 12.5498L10.4667 8.8789C10.4376 8.71256 10.494 8.54284 10.6177 8.42512L13.3488 5.8253L9.58068 5.29124C9.40995 5.26705 9.26234 5.16221 9.18599 5.01092L7.5 1.67011Z" fill="#FDD835"/>
</svg>
