<svg width="15" height="14" viewBox="0 0 15 14" fill="none" xmlns="http://www.w3.org/2000/svg">
<path fill-rule="evenodd" clip-rule="evenodd" d="M7.96984 0.285615C7.88157 0.110724 7.69944 0 7.5 0C7.30057 0 7.11843 0.110724 7.03017 0.285615L4.9963 4.31575L0.448805 4.96026C0.251334 4.98824 0.0872609 5.12349 0.0256324 5.30908C-0.0359962 5.49467 0.0155195 5.69838 0.1585 5.83448L3.45386 8.97137L2.67684 13.401C2.64312 13.5932 2.72393 13.7875 2.88527 13.9021C3.04662 14.0168 3.26053 14.0319 3.43706 13.9411L7.50461 11.8498L11.5625 13.9409C11.739 14.0319 11.9531 14.0169 12.1145 13.9023C12.276 13.7877 12.3569 13.5933 12.3232 13.401L11.5461 8.97137L14.8415 5.83448C14.9845 5.69838 15.036 5.49467 14.9744 5.30908C14.9127 5.12349 14.7487 4.98824 14.5512 4.96026L10.0037 4.31575L7.96984 0.285615Z" fill="#FDD835"/>
</svg>
